#mtllib boid.mtl
#o Boid_Boid_Mesh
v 0.000000 0.000000 -0.122971
v 0.123759 0.050256 0.123002
v -0.123759 0.050256 0.123002
v 0.000000 0.020065 0.077737
v 0.000000 -0.029792 0.077737
vt 0.616429 0.659420
vt 0.573914 0.407597
vt 0.573653 0.659375
vt 0.503557 0.971908
vt 0.251946 0.485954
vt 0.251810 0.880283
vt 0.386122 0.247875
vt 0.385986 0.642204
vt 0.637932 0.156424
vn -0.343495 0.000000 0.939154
vn 0.343495 0.000000 0.939154
vn -0.202102 0.974507 -0.097422
vn 0.202102 0.974507 -0.097422
vn 0.569871 -0.812828 -0.120651
vn -0.569871 -0.812828 -0.120651
f 5/1/1 2/2/1 4/3/1
f 4/3/2 3/2/2 5/1/2
f 2/4/3 1/5/3 4/6/3
f 4/6/4 1/5/4 3/4/4
f 5/7/5 1/8/5 2/9/5
f 3/9/6 1/8/6 5/7/6